<?xml version="1.0" encoding="UTF-8"?>
<svg id="Livello_1" data-name="Livello 1" xmlns="http://www.w3.org/2000/svg" viewBox="0 0 2659.52 774.52">
  <path d="M2026.21,177.56c-5.02-4.03-11.21-7.41-18.57-10.12-7.36-2.71-15.65-5.14-24.87-7.28l-25.3-5.8c-4.36-.99-8.21-2.26-11.54-3.83-3.33-1.56-6.13-3.39-8.39-5.49-2.26-2.1-3.95-4.5-5.06-7.22-1.11-2.72-1.67-5.8-1.67-9.26v-.25c0-2.55.39-4.92,1.17-7.1.78-2.18,1.89-4.13,3.33-5.86,1.44-1.73,3.15-3.27,5.12-4.63s4.2-2.49,6.66-3.39c2.47-.9,5.16-1.58,8.08-2.04,2.92-.45,5.94-.68,9.07-.68,5.02,0,9.57.54,13.64,1.6,4.07,1.07,7.69,2.72,10.86,4.94,3.17,2.22,5.84,5.06,8.02,8.51,2.18,3.46,3.84,7.65,5,12.59h33.57c-1.24-8.31-3.64-15.75-7.22-22.34-3.58-6.58-8.31-12.16-14.19-16.72-5.88-4.57-12.84-8.06-20.86-10.49-8.02-2.43-17.09-3.64-27.21-3.64-6.58,0-12.84.54-18.76,1.6-5.92,1.07-11.4,2.65-16.42,4.75-5.02,2.1-9.55,4.61-13.58,7.53-4.03,2.92-7.47,6.25-10.3,10-2.84,3.75-5.04,7.86-6.6,12.34-1.56,4.49-2.35,9.24-2.35,14.25v.37c0,7.57,1.21,14.25,3.64,20.06,2.43,5.8,5.86,10.84,10.3,15.12,4.44,4.28,9.83,7.88,16.17,10.8,6.33,2.92,13.41,5.25,21.23,6.97l25.18,5.68c5.1,1.15,9.77,2.45,14.01,3.89,4.24,1.44,7.88,3.21,10.92,5.31,3.04,2.1,5.41,4.69,7.1,7.78,1.69,3.09,2.53,6.89,2.53,11.42v.25c0,2.8-.43,5.37-1.3,7.71-.86,2.34-2.06,4.46-3.58,6.36-1.52,1.89-3.42,3.54-5.68,4.94-2.26,1.4-4.75,2.57-7.47,3.52s-5.72,1.65-9.01,2.1c-3.29.45-6.79.68-10.49.68-6.5,0-12.24-.76-17.22-2.28-4.98-1.52-9.28-3.7-12.9-6.54-3.62-2.84-6.54-6.31-8.76-10.43-2.22-4.11-3.87-8.76-4.94-13.95h-33.57c1.23,8.31,3.68,16.04,7.34,23.2s8.64,13.35,14.94,18.57c6.29,5.23,13.94,9.34,22.96,12.34,9.01,3,19.44,4.51,31.29,4.51,6.83,0,13.35-.52,19.56-1.54,6.21-1.03,11.97-2.59,17.28-4.69,5.31-2.1,10.08-4.67,14.32-7.71,4.24-3.04,7.86-6.58,10.86-10.61,3-4.03,5.31-8.56,6.91-13.58,1.6-5.02,2.41-10.45,2.41-16.29v-.37c0-8.15-1.36-15.1-4.07-20.86-2.71-5.76-6.58-10.65-11.6-14.69Z"/>
  <path d="M2084.47,101.66h-31.35v33.94h-19.25v25.42h19.25v61.83c0,7.49.82,13.84,2.47,19.07,1.65,5.23,4.26,9.48,7.84,12.77,3.58,3.29,8.25,5.7,14.01,7.22,5.76,1.52,12.75,2.28,20.98,2.28h13.95v-25.42h-7.28c-3.46,0-6.48-.27-9.07-.8-2.59-.53-4.73-1.54-6.42-3.02-1.69-1.48-2.96-3.54-3.82-6.17-.87-2.63-1.3-6.05-1.3-10.24v-57.51h28.63v-25.42h-28.63v-33.94Z"/>
  <path d="M2203.81,207.06c0,5.76-.56,10.86-1.67,15.3-1.11,4.44-2.8,8.17-5.06,11.17-2.26,3-5.1,5.27-8.52,6.79-3.41,1.52-7.39,2.28-11.91,2.28s-8.62-.76-12.03-2.28c-3.42-1.52-6.25-3.78-8.52-6.79-2.26-3-3.95-6.73-5.06-11.17-1.11-4.44-1.67-9.54-1.67-15.3v-71.46h-31.35v77.88c0,8.39.97,15.94,2.9,22.65,1.93,6.71,4.81,12.4,8.64,17.09,3.83,4.69,8.66,8.29,14.5,10.8,5.84,2.51,12.71,3.76,20.61,3.76,4.69,0,8.97-.45,12.84-1.36,3.87-.91,7.38-2.18,10.55-3.83,3.17-1.65,6.05-3.66,8.64-6.05,2.59-2.38,4.96-4.98,7.1-7.77v15.43h31.22v-128.6h-31.22v71.46Z"/>
  <path d="M2340.93,151.65c-1.89-2.88-4.2-5.51-6.91-7.9-2.72-2.39-5.76-4.46-9.13-6.23-3.37-1.77-7.08-3.15-11.11-4.13-4.03-.99-8.35-1.48-12.96-1.48-5.43,0-10.66.68-15.67,2.04-5.02,1.36-9.71,3.35-14.07,5.99-4.36,2.63-8.37,5.88-12.03,9.75-3.66,3.87-6.77,8.31-9.32,13.33-2.55,5.02-4.55,10.59-5.99,16.72-1.44,6.13-2.16,12.82-2.16,20.06v.25c0,7.16.72,13.82,2.16,19.99,1.44,6.17,3.43,11.77,5.99,16.79,2.55,5.02,5.65,9.46,9.32,13.33,3.66,3.87,7.67,7.12,12.03,9.75,4.36,2.63,9.05,4.63,14.07,5.99,5.02,1.36,10.24,2.04,15.67,2.04,4.61,0,8.93-.49,12.96-1.48,4.03-.99,7.73-2.36,11.11-4.13,3.37-1.77,6.42-3.87,9.13-6.29,2.72-2.43,5.02-5.04,6.91-7.84v16.04h31.22V82.78h-31.22v68.87ZM2341.91,200.03c0,4.77-.39,9.15-1.17,13.14-.78,3.99-1.85,7.59-3.21,10.8s-3.05,6.03-5.06,8.45c-2.02,2.43-4.28,4.46-6.79,6.11-2.51,1.65-5.23,2.88-8.15,3.7-2.92.82-6.03,1.23-9.32,1.23s-6.42-.41-9.38-1.23c-2.96-.82-5.68-2.06-8.15-3.7-2.47-1.65-4.71-3.68-6.73-6.11-2.02-2.43-3.7-5.25-5.06-8.45s-2.43-6.81-3.21-10.8c-.78-3.99-1.17-8.37-1.17-13.14v-.25c0-4.77.39-9.15,1.17-13.14.78-3.99,1.85-7.59,3.21-10.8s3.04-6.03,5.06-8.45c2.01-2.43,4.26-4.46,6.73-6.11,2.47-1.64,5.18-2.88,8.15-3.7,2.96-.82,6.09-1.23,9.38-1.23s6.4.41,9.32,1.23c2.92.82,5.63,2.06,8.15,3.7,2.51,1.65,4.77,3.68,6.79,6.11,2.01,2.43,3.7,5.25,5.06,8.45s2.43,6.81,3.21,10.8c.78,3.99,1.17,8.37,1.17,13.14v.25Z"/>
  <rect x="2386.96" y="135.6" width="31.35" height="128.6"/>
  <rect x="2386.96" y="82.78" width="31.35" height="30.85"/>
  <path d="M2554.31,172.13c-3.13-8.31-7.59-15.49-13.39-21.54-5.8-6.05-12.86-10.74-21.17-14.07-8.31-3.33-17.61-5-27.89-5s-19.68,1.67-27.95,5c-8.27,3.33-15.32,8.02-21.17,14.07-5.84,6.05-10.33,13.23-13.45,21.54-3.13,8.31-4.69,17.44-4.69,27.4v.25c0,9.87,1.56,19.01,4.69,27.4,3.13,8.39,7.61,15.59,13.45,21.6,5.84,6.01,12.9,10.7,21.17,14.07,8.27,3.37,17.59,5.06,27.95,5.06s19.58-1.69,27.89-5.06c8.31-3.37,15.36-8.06,21.17-14.07,5.8-6,10.26-13.21,13.39-21.6,3.13-8.39,4.69-17.53,4.69-27.4v-.25c0-9.95-1.56-19.09-4.69-27.4ZM2526.29,199.78c0,6.58-.74,12.53-2.22,17.83-1.48,5.31-3.66,9.87-6.54,13.7-2.88,3.83-6.46,6.77-10.74,8.82-4.28,2.06-9.26,3.09-14.94,3.09s-10.67-1.03-15-3.09c-4.32-2.06-7.92-5-10.8-8.82-2.88-3.83-5.04-8.39-6.48-13.7-1.44-5.31-2.16-11.25-2.16-17.83v-.25c0-6.58.72-12.53,2.16-17.83,1.44-5.31,3.6-9.85,6.48-13.64,2.88-3.78,6.48-6.71,10.8-8.76,4.32-2.06,9.32-3.09,15-3.09s10.65,1.03,14.94,3.09c4.28,2.06,7.86,4.98,10.74,8.76,2.88,3.78,5.06,8.33,6.54,13.64,1.48,5.31,2.22,11.25,2.22,17.83v.25Z"/>
  <polygon points="248.33 423.63 517.5 423.63 517.5 331.85 248.33 331.85 248.33 170.1 547.55 170.1 547.55 78.31 139.67 78.31 139.67 683.34 548.78 683.34 548.78 591.56 248.33 591.56 248.33 423.63"/>
  <path d="M735.44,595.88c-8.64-1.78-15.78-5.14-21.4-10.08-5.63-4.94-9.87-11.79-12.75-20.58-2.89-8.78-4.33-20.16-4.33-34.16v-191.8h95.49v-84.79h-95.49v-113.19h-104.54v113.19h-64.21v84.79h64.21v206.2c0,24.97,2.74,46.17,8.23,63.59,5.49,17.43,14.2,31.63,26.14,42.6,11.94,10.98,27.51,19,46.71,24.08,19.21,5.08,42.53,7.61,69.97,7.61h46.51v-84.79h-24.28c-11.52,0-21.61-.89-30.25-2.68Z"/>
  <path d="M1198.67,364.16c-8.23-19.07-18.6-36.15-31.08-51.24-12.49-15.09-26.96-27.99-43.42-38.69-16.47-10.7-34.98-18.93-55.56-24.69-20.58-5.76-43.09-8.65-67.51-8.65-21.13,0-41.23,2.4-60.3,7.2-19.07,4.8-36.83,11.8-53.3,20.99-16.47,9.2-31.35,20.31-44.66,33.34-13.32,13.04-24.63,27.92-33.96,44.65-9.33,16.74-16.53,35.13-21.61,55.15-5.08,20.03-7.61,41.43-7.61,64.21v.82c0,22.22,2.26,43.29,6.79,63.18,4.53,19.9,11.25,38.28,20.17,55.15,8.92,16.87,19.76,32.04,32.52,45.48,12.75,13.45,27.43,24.97,44.04,34.57,16.6,9.61,35.05,17.02,55.35,22.22,20.3,5.21,41.98,7.82,65.03,7.82,29.35,0,55.77-3.44,79.23-10.29,23.46-6.86,44.04-16.47,61.74-28.81,17.7-12.35,32.44-26.96,44.25-43.83,11.8-16.88,20.58-35.19,26.34-54.95h-104.54c-3.56,9.33-8.37,17.56-14.4,24.7-6.04,7.13-13.31,13.24-21.81,18.31-8.51,5.08-18.39,8.85-29.64,11.32-11.25,2.47-23.73,3.7-37.45,3.7-12.9,0-24.84-1.57-35.81-4.73-10.98-3.15-20.99-7.75-30.04-13.79-9.06-6.03-17.08-13.37-24.08-22.02-6.99-8.65-12.83-18.38-17.49-29.22-4.67-10.83-8.17-22.9-10.5-36.22-.72-4.1-1.3-8.29-1.77-12.55h333.3v-.41c.82-24.69-.62-48.22-4.32-70.59-3.7-22.36-9.67-43.07-17.9-62.15ZM1112.65,421.98h-223.96c1.18-8.07,2.77-15.61,4.79-22.64,5.35-18.66,13.1-34.09,23.25-46.3,10.15-12.21,22.43-21.26,36.84-27.16,14.4-5.9,30.25-8.85,47.54-8.85,11.25,0,21.68,1.23,31.28,3.7,9.6,2.47,18.45,5.83,26.55,10.08,8.09,4.26,15.29,9.54,21.6,15.85,6.31,6.31,11.8,13.31,16.47,20.99,4.66,7.68,8.29,16.05,10.91,25.11,2.61,9.05,4.18,18.66,4.74,28.81v.41Z"/>
  <path d="M1871.59,364.16c-8.23-19.07-18.6-36.15-31.08-51.24-12.49-15.09-26.96-27.99-43.42-38.69-16.47-10.7-34.98-18.93-55.56-24.69-20.58-5.76-43.09-8.65-67.51-8.65-21.13,0-41.23,2.4-60.3,7.2-19.07,4.8-36.83,11.8-53.3,20.99-16.47,9.2-31.35,20.31-44.66,33.34-10.15,9.94-19.13,20.95-26.96,33.04v-86.34h-7.82c-16.47,0-31.69,2-45.69,5.97-13.99,3.98-26.61,9.67-37.86,17.08-11.25,7.41-21.2,16.33-29.84,26.75-8.64,10.43-15.84,21.96-21.6,34.57v-79.02h-104.54v428.87h104.54v-215.26c0-21.67,2.67-40.06,8.03-55.15,5.35-15.09,13.1-27.3,23.25-36.63,10.15-9.32,22.43-16.05,36.84-20.16,14.4-4.12,30.66-6.18,48.78-6.18h17.38c-8.58,15.97-15.28,33.38-20.07,52.27-5.08,20.03-7.61,41.43-7.61,64.21v.82c0,22.22,2.26,43.29,6.79,63.18,4.53,19.9,11.25,38.28,20.17,55.15,8.92,16.87,19.76,32.04,32.52,45.48,12.75,13.45,27.43,24.97,44.04,34.57,16.6,9.61,35.05,17.02,55.35,22.22,20.3,5.21,41.98,7.82,65.03,7.82,29.35,0,55.77-3.44,79.23-10.29,23.46-6.86,44.04-16.47,61.74-28.81,17.7-12.35,32.44-26.96,44.25-43.83,11.8-16.88,20.58-35.19,26.34-54.95h-104.54c-3.56,9.33-8.37,17.56-14.4,24.7-6.04,7.13-13.31,13.24-21.81,18.31-8.51,5.08-18.39,8.85-29.64,11.32-11.25,2.47-23.73,3.7-37.45,3.7-12.9,0-24.84-1.57-35.81-4.73-10.98-3.15-20.99-7.75-30.04-13.79-9.06-6.03-17.08-13.37-24.08-22.02-6.99-8.65-12.83-18.38-17.49-29.22-4.67-10.83-8.17-22.9-10.5-36.22-.72-4.1-1.3-8.29-1.77-12.55h333.3v-.41c.82-24.69-.62-48.22-4.32-70.59-3.7-22.36-9.67-43.07-17.9-62.15ZM1785.57,421.98h-223.96c1.18-8.07,2.77-15.61,4.79-22.64,5.35-18.66,13.1-34.09,23.25-46.3,10.15-12.21,22.43-21.26,36.84-27.16,14.4-5.9,30.25-8.85,47.54-8.85,11.25,0,21.68,1.23,31.28,3.7,9.6,2.47,18.45,5.83,26.55,10.08,8.09,4.26,15.29,9.54,21.6,15.85,6.31,6.31,11.8,13.31,16.47,20.99,4.66,7.68,8.29,16.05,10.91,25.11,2.61,9.05,4.18,18.66,4.74,28.81v.41Z"/>
</svg>